<svg width="64" height="64" viewBox="0 0 64 64" fill="none" xmlns="http://www.w3.org/2000/svg">
<g clip-path="url(#clip0_28_7)">
<rect width="64" height="64" fill="#1BADA6"/>
<circle cx="32" cy="32" r="32" fill="#1BADA6"/>
<path d="M18.4745 38.1534L19.1145 10.6334H29.6745L20.7145 38.1534H18.4745ZM17.4505 53.1934C14.6985 53.1934 13.4825 51.4654 13.4825 49.0974C13.4825 46.3454 15.5305 43.7214 18.4745 43.7214C21.2265 43.7214 22.4425 45.4494 22.4425 47.8174C22.4425 50.8894 20.4585 53.1934 17.4505 53.1934ZM31.0555 52.8734L35.4075 28.1694L30.9915 25.9934V25.3534L41.9355 23.1774H42.1275V30.2814H42.5115C46.4795 23.8174 48.2075 23.1774 50.3195 23.1774C52.1115 23.1774 53.7115 24.3934 53.7115 25.5454C53.7115 25.8654 53.6475 26.1214 53.4555 26.5694L51.4075 30.7294H51.0235L50.2555 30.2174C49.4235 29.5774 48.5915 29.1934 47.3755 29.1934C45.3915 29.1934 44.1115 29.9614 41.6155 33.9294L38.3515 52.8734H31.0555Z" fill="white"/>
</g>
<defs>
<clipPath id="clip0_28_7">
<rect width="64" height="64" fill="white"/>
</clipPath>
</defs>
</svg>
