<svg width="64" height="64" viewBox="0 0 64 64" fill="none" xmlns="http://www.w3.org/2000/svg">
<g clip-path="url(#clip0_30_2)">
<circle cx="32" cy="32" r="32" fill="#1BADA6"/>
<path d="M27.6929 37.4506L25.7129 10.4506H38.3729L36.3929 36.9106L27.6929 37.4506ZM25.5929 47.7106C25.5929 45.8306 26.2329 44.3306 27.5129 43.2106C28.7929 42.0506 30.2929 41.4706 32.0129 41.4706C34.0129 41.4706 35.5729 42.0506 36.6929 43.2106C37.8529 44.3306 38.4329 45.8306 38.4329 47.7106C38.4329 49.5906 37.7929 51.1106 36.5129 52.2706C35.2329 53.3906 33.7329 53.9506 32.0129 53.9506C30.0529 53.9506 28.4929 53.3906 27.3329 52.2706C26.1729 51.1106 25.5929 49.5906 25.5929 47.7106Z" fill="white"/>
</g>
<defs>
<clipPath id="clip0_30_2">
<rect width="64" height="64" fill="white"/>
</clipPath>
</defs>
</svg>
