<svg xmlns="http://www.w3.org/2000/svg" style="display: none;" width="100%" height="100%">
  <defs>
    <symbol id="g" width="80" height="80" fill="none" viewBox="0 0 80 80">
      <path fill="url(#a)" fill-rule="evenodd" d="m27.715 24.686.014-.037-.041-.043c-.023-.023-.07-.01-.07-.01l-.055-.063h-.192l-.055.063s-.048-.013-.07.01l-.042.043.015.037-.019.055.061.237c.013.051.022.07.058.097a4 4 0 0 0 .112.077c.01.007.024.018.036.018.012 0 .025-.011.036-.018l.112-.077c.036-.026.044-.046.057-.097l.061-.238-.018-.054Z" clip-rule="evenodd"/>
      <path fill="#fff" fill-rule="evenodd" d="M27.467 24.93c.003 0 .027.008.046.018l.036.02c.005.003.002.008-.002.01a3.528 3.528 0 0 0-.062.05c-.006.005-.013.013-.018.013a2.922 2.922 0 0 0-.08-.062c-.005-.003-.007-.008-.003-.011l.037-.02a.213.213 0 0 1 .046-.018Zm0-.3c.002 0 .012.001.026.006.016.005.034.012.042.012s.067-.011.067-.011.07.086.07.105c0 .018-.009.023-.017.033l-.053.057c-.005.005-.015.013-.01.028.007.015.016.034.006.053-.01.018-.027.031-.038.03a.199.199 0 0 1-.047-.023c-.01-.006-.04-.032-.04-.041 0-.01.032-.027.037-.031.006-.004.032-.02.033-.025 0-.006 0-.008-.008-.023-.007-.015-.021-.035-.019-.048.003-.013.025-.02.041-.026l.05-.02c.005-.002.004-.003-.008-.004a.198.198 0 0 0-.06-.002c-.015.005-.04.011-.042.014-.003.004-.004.004-.002.016l.014.078c.001.01.003.017-.008.02-.01.002-.028.006-.034.006-.006 0-.024-.004-.035-.006-.01-.003-.009-.01-.008-.02l.015-.078c.002-.012 0-.012-.002-.016a.213.213 0 0 0-.043-.014.198.198 0 0 0-.06.002c-.011 0-.012.002-.008.004l.05.02c.016.006.039.013.041.026.002.013-.012.033-.02.048-.007.015-.007.017-.007.023 0 .005.027.02.033.025.006.004.037.021.037.03 0 .01-.03.036-.04.042a.2.2 0 0 1-.046.022c-.011.002-.028-.01-.038-.03-.01-.018-.001-.037.005-.052s-.005-.023-.01-.028a35.76 35.76 0 0 1-.052-.057c-.01-.01-.018-.015-.018-.033 0-.019.07-.105.07-.105s.06.011.068.011c.008 0 .025-.007.041-.012.014-.005.025-.005.026-.006h.001Z" clip-rule="evenodd"/>
      <path fill="url(#b)" d="m27.617 24.596-.054-.063h-.192l-.055.063s-.048-.013-.07.01c0 0 .063-.006.085.03 0 0 .06.012.068.012.008 0 .025-.007.041-.012a.095.095 0 0 1 .027-.006s.01 0 .026.006c.016.005.034.012.042.012s.067-.011.067-.011c.022-.037.086-.031.086-.031-.023-.023-.07-.01-.07-.01Z"/>
      <mask id="c" width="58" height="60" x="11" y="10" maskUnits="userSpaceOnUse" style="mask-type:luminance">
        <path fill="#fff" d="M67.867 34.667H40.533V46h15.734c-1.467 7.2-7.6 11.333-15.734 11.333C30.933 57.333 23.2 49.6 23.2 40c0-9.6 7.733-17.333 17.333-17.333 4.134 0 7.867 1.466 10.8 3.866L59.867 18c-5.2-4.533-11.867-7.333-19.334-7.333A29.249 29.249 0 0 0 11.2 40a29.249 29.249 0 0 0 29.333 29.333c14.667 0 28-10.666 28-29.333 0-1.733-.266-3.6-.666-5.333Z"/>
      </mask>
      <g mask="url(#c)">
        <path fill="#FBBC05" d="M8.533 57.333V22.667L31.2 40 8.533 57.333Z"/>
      </g>
      <mask id="d" width="58" height="60" x="11" y="10" maskUnits="userSpaceOnUse" style="mask-type:luminance">
        <path fill="#fff" d="M67.867 34.667H40.533V46h15.734c-1.467 7.2-7.6 11.333-15.734 11.333C30.933 57.333 23.2 49.6 23.2 40c0-9.6 7.733-17.333 17.333-17.333 4.134 0 7.867 1.466 10.8 3.866L59.867 18c-5.2-4.533-11.867-7.333-19.334-7.333A29.249 29.249 0 0 0 11.2 40a29.249 29.249 0 0 0 29.333 29.333c14.667 0 28-10.666 28-29.333 0-1.733-.266-3.6-.666-5.333Z"/>
      </mask>
      <g mask="url(#d)">
        <path fill="#EA4335" d="M8.533 22.667 31.2 40l9.333-8.133 32-5.2V8h-64v14.667Z"/>
      </g>
      <mask id="e" width="58" height="60" x="11" y="10" maskUnits="userSpaceOnUse" style="mask-type:luminance">
        <path fill="#fff" d="M67.867 34.667H40.533V46h15.734c-1.467 7.2-7.6 11.333-15.734 11.333C30.933 57.333 23.2 49.6 23.2 40c0-9.6 7.733-17.333 17.333-17.333 4.134 0 7.867 1.466 10.8 3.866L59.867 18c-5.2-4.533-11.867-7.333-19.334-7.333A29.249 29.249 0 0 0 11.2 40a29.249 29.249 0 0 0 29.333 29.333c14.667 0 28-10.666 28-29.333 0-1.733-.266-3.6-.666-5.333Z"/>
      </mask>
      <g mask="url(#e)">
        <path fill="#34A853" d="m8.533 57.333 40-30.666L59.067 28 72.533 8v64h-64V57.333Z"/>
      </g>
      <mask id="f" width="58" height="60" x="11" y="10" maskUnits="userSpaceOnUse" style="mask-type:luminance">
        <path fill="#fff" d="M67.867 34.667H40.533V46h15.734c-1.467 7.2-7.6 11.333-15.734 11.333C30.933 57.333 23.2 49.6 23.2 40c0-9.6 7.733-17.333 17.333-17.333 4.134 0 7.867 1.466 10.8 3.866L59.867 18c-5.2-4.533-11.867-7.333-19.334-7.333A29.249 29.249 0 0 0 11.2 40a29.249 29.249 0 0 0 29.333 29.333c14.667 0 28-10.666 28-29.333 0-1.733-.266-3.6-.666-5.333Z"/>
      </mask>
      <g mask="url(#f)">
        <path fill="#4285F4" d="M72.533 72 31.2 40l-5.333-4 46.666-13.333V72Z"/>
      </g>
      <defs>
        <linearGradient id="a" x1="27.2" x2="80.533" y1="56.84" y2="56.84" gradientUnits="userSpaceOnUse">
          <stop stop-color="#F50"/>
          <stop offset=".41" stop-color="#F50"/>
          <stop offset=".582" stop-color="#FF2000"/>
          <stop offset="1" stop-color="#FF2000"/>
        </linearGradient>
        <linearGradient id="b" x1="28.196" x2="71.512" y1="30.355" y2="30.355" gradientUnits="userSpaceOnUse">
          <stop stop-color="#FF452A"/>
          <stop offset="1" stop-color="#FF2000"/>
        </linearGradient>
      </defs>
    </symbol>
    <symbol id="ya" width="80" height="80" fill="none" viewBox="0 0 80 80">
      <path fill="url(#a)" fill-rule="evenodd" d="m27.715 24.686.014-.037-.041-.043c-.023-.023-.07-.01-.07-.01l-.055-.063h-.192l-.055.063s-.048-.013-.07.01l-.042.043.015.037-.019.055.061.237c.013.051.022.07.058.097a4 4 0 0 0 .112.077c.01.007.024.018.036.018.012 0 .025-.011.036-.018l.112-.077c.036-.026.044-.046.057-.097l.061-.238-.018-.054Z" clip-rule="evenodd"/>
      <path fill="#fff" fill-rule="evenodd" d="M27.467 24.93c.003 0 .027.008.046.018l.036.02c.005.003.002.008-.002.01a3.528 3.528 0 0 0-.062.05c-.006.005-.013.013-.018.013a2.922 2.922 0 0 0-.08-.062c-.005-.003-.007-.008-.003-.011l.037-.02a.213.213 0 0 1 .046-.018Zm0-.3c.002 0 .012.001.026.006.016.005.034.012.042.012s.067-.011.067-.011.07.086.07.105c0 .018-.009.023-.017.033l-.053.057c-.005.005-.015.013-.01.028.007.015.016.034.006.053-.01.018-.027.031-.038.03a.199.199 0 0 1-.047-.023c-.01-.006-.04-.032-.04-.041 0-.01.032-.027.037-.031.006-.004.032-.02.033-.025 0-.006 0-.008-.008-.023-.007-.015-.021-.035-.019-.048.003-.013.025-.02.041-.026l.05-.02c.005-.002.004-.003-.008-.004a.198.198 0 0 0-.06-.002c-.015.005-.04.011-.042.014-.003.004-.004.004-.002.016l.014.078c.001.01.003.017-.008.02-.01.002-.028.006-.034.006-.006 0-.024-.004-.035-.006-.01-.003-.009-.01-.008-.02l.015-.078c.002-.012 0-.012-.002-.016a.213.213 0 0 0-.043-.014.198.198 0 0 0-.06.002c-.011 0-.012.002-.008.004l.05.02c.016.006.039.013.041.026.002.013-.012.033-.02.048-.007.015-.007.017-.007.023 0 .005.027.02.033.025.006.004.037.021.037.03 0 .01-.03.036-.04.042a.2.2 0 0 1-.046.022c-.011.002-.028-.01-.038-.03-.01-.018-.001-.037.005-.052s-.005-.023-.01-.028a35.76 35.76 0 0 1-.052-.057c-.01-.01-.018-.015-.018-.033 0-.019.07-.105.07-.105s.06.011.068.011c.008 0 .025-.007.041-.012.014-.005.025-.005.026-.006h.001Z" clip-rule="evenodd"/>
      <path fill="url(#b)" d="m27.617 24.596-.054-.063h-.192l-.055.063s-.048-.013-.07.01c0 0 .063-.006.085.03 0 0 .06.012.068.012.008 0 .025-.007.041-.012a.095.095 0 0 1 .027-.006s.01 0 .026.006c.016.005.034.012.042.012s.067-.011.067-.011c.022-.037.086-.031.086-.031-.023-.023-.07-.01-.07-.01Z"/>
      <circle cx="40" cy="40" r="29.333" fill="#FC3F1D"/>
      <path fill="#fff" d="M37.054 60.166v-3.754c0-5.095-.59-7.616-2.625-12.014l-9.91-21.509h6.856l8.41 18.397c2.465 5.365 3.536 8.153 3.536 14.322v4.559h-6.267Zm4.017-19.255 7.822-18.022h6.588L47.553 40.91h-6.481Z"/>
      <defs>
        <linearGradient id="a" x1="27.2" x2="80.533" y1="56.84" y2="56.84" gradientUnits="userSpaceOnUse">
          <stop stop-color="#F50"/>
          <stop offset=".41" stop-color="#F50"/>
          <stop offset=".582" stop-color="#FF2000"/>
          <stop offset="1" stop-color="#FF2000"/>
        </linearGradient>
        <linearGradient id="b" x1="28.196" x2="71.512" y1="30.355" y2="30.355" gradientUnits="userSpaceOnUse">
          <stop stop-color="#FF452A"/>
          <stop offset="1" stop-color="#FF2000"/>
        </linearGradient>
      </defs>
    </symbol>
    <symbol id="bing" width="80" height="80" fill="none" viewBox="0 0 80 80">
      <path fill="url(#a)" fill-rule="evenodd" d="m27.715 24.686.014-.037-.041-.043c-.023-.023-.07-.01-.07-.01l-.055-.063h-.192l-.055.063s-.048-.013-.07.01l-.042.043.015.037-.019.055.061.237c.013.051.022.07.058.097a4 4 0 0 0 .112.077c.01.007.024.018.036.018.012 0 .025-.011.036-.018l.112-.077c.036-.026.044-.046.057-.097l.061-.238-.018-.054Z" clip-rule="evenodd"/>
      <path fill="#fff" fill-rule="evenodd" d="M27.467 24.93c.003 0 .027.008.046.018l.036.02c.005.003.002.008-.002.01a3.528 3.528 0 0 0-.062.05c-.006.005-.013.013-.018.013a2.922 2.922 0 0 0-.08-.062c-.005-.003-.007-.008-.003-.011l.037-.02a.213.213 0 0 1 .046-.018Zm0-.3c.002 0 .012.001.026.006.016.005.034.012.042.012s.067-.011.067-.011.07.086.07.105c0 .018-.009.023-.017.033l-.053.057c-.005.005-.015.013-.01.028.007.015.016.034.006.053-.01.018-.027.031-.038.03a.199.199 0 0 1-.047-.023c-.01-.006-.04-.032-.04-.041 0-.01.032-.027.037-.031.006-.004.032-.02.033-.025 0-.006 0-.008-.008-.023-.007-.015-.021-.035-.019-.048.003-.013.025-.02.041-.026l.05-.02c.005-.002.004-.003-.008-.004a.198.198 0 0 0-.06-.002c-.015.005-.04.011-.042.014-.003.004-.004.004-.002.016l.014.078c.001.01.003.017-.008.02-.01.002-.028.006-.034.006-.006 0-.024-.004-.035-.006-.01-.003-.009-.01-.008-.02l.015-.078c.002-.012 0-.012-.002-.016a.213.213 0 0 0-.043-.014.198.198 0 0 0-.06.002c-.011 0-.012.002-.008.004l.05.02c.016.006.039.013.041.026.002.013-.012.033-.02.048-.007.015-.007.017-.007.023 0 .005.027.02.033.025.006.004.037.021.037.03 0 .01-.03.036-.04.042a.2.2 0 0 1-.046.022c-.011.002-.028-.01-.038-.03-.01-.018-.001-.037.005-.052s-.005-.023-.01-.028a35.76 35.76 0 0 1-.052-.057c-.01-.01-.018-.015-.018-.033 0-.019.07-.105.07-.105s.06.011.068.011c.008 0 .025-.007.041-.012.014-.005.025-.005.026-.006h.001Z" clip-rule="evenodd"/>
      <path fill="url(#b)" d="m27.617 24.596-.054-.063h-.192l-.055.063s-.048-.013-.07.01c0 0 .063-.006.085.03 0 0 .06.012.068.012.008 0 .025-.007.041-.012a.095.095 0 0 1 .027-.006s.01 0 .026.006c.016.005.034.012.042.012s.067-.011.067-.011c.022-.037.086-.031.086-.031-.023-.023-.07-.01-.07-.01Z"/>
      <path fill="url(#c)" fill-rule="evenodd" d="M40.42 29.168c-1.082.125-1.907 1.003-1.983 2.11-.033.478-.023.51 1.059 3.294 2.46 6.332 3.056 7.856 3.157 8.07.243.52.584 1.009 1.011 1.447.327.337.543.518.909.762.642.429.96.547 3.459 1.287 2.433.72 3.763 1.2 4.908 1.768 1.484.737 2.52 1.575 3.175 2.569.47.713.886 1.993 1.067 3.28.071.504.072 1.616.001 2.072-.153.987-.458 1.815-.925 2.508-.248.368-.162.306.2-.143 1.021-1.27 2.062-3.44 2.593-5.41.642-2.382.73-4.94.251-7.362-.932-4.716-3.908-8.785-8.101-11.075-.264-.144-1.267-.67-2.627-1.377a225.864 225.864 0 0 1-1.251-.654 2092.237 2092.237 0 0 1-3.879-2.022c-1.348-.706-1.918-.99-2.08-1.04-.171-.052-.605-.119-.713-.11l-.232.026Z" clip-rule="evenodd"/>
      <path fill="url(#d)" d="M43.358 52.807c-.075.044-.18.108-.233.142-.054.035-.173.108-.264.165a1192.378 1192.378 0 0 0-3.767 2.324c-.07.04-.363.222-.654.402l-1.126.695-1.306.806-1.14.703a9.047 9.047 0 0 0-.486.312c-.046.039-2.154 1.345-3.211 1.989a7.003 7.003 0 0 1-2.684.945c-.443.06-1.281.06-1.723 0a6.936 6.936 0 0 1-3.245-1.313c-.37-.277-1.068-.974-1.335-1.334a6.912 6.912 0 0 1-1.246-2.789 5.208 5.208 0 0 0-.102-.444c-.02-.02.016.338.08.806.067.486.21 1.19.362 1.793 1.185 4.66 4.555 8.45 9.118 10.254 1.314.52 2.64.846 4.083 1.007.542.06 2.076.085 2.642.042 2.595-.197 4.854-.96 7.171-2.425l.862-.544c.268-.168.605-.382.75-.476.146-.093.321-.203.39-.244a162.458 162.458 0 0 1 1.251-.79l1.681-1.063.578-.364.02-.013.064-.04.03-.02.425-.268 1.47-.928c1.871-1.176 2.43-1.589 3.299-2.44.362-.356.909-.962.936-1.039.005-.016.103-.165.216-.333.46-.68.767-1.515.92-2.498.07-.456.069-1.568-.002-2.072-.137-.973-.448-2.077-.783-2.78-.55-1.152-1.721-2.2-3.404-3.043-.464-.233-.944-.446-.997-.443-.026.001-1.592.958-3.48 2.127l-3.642 2.254a43.49 43.49 0 0 1-.438.267l-1.08.67Z"/>
      <path fill="url(#e)" d="m20.808 47.201.008 8.139.106.473c.329 1.477.9 2.542 1.892 3.532.466.465.823.746 1.329 1.045a6.685 6.685 0 0 0 3.483.945c1.321 0 2.464-.33 3.642-1.05.199-.121.977-.6 1.73-1.065l1.37-.845V30.23c-.001-5.635-.011-8.982-.03-9.245a6.662 6.662 0 0 0-1.962-4.314c-.356-.352-.66-.588-1.567-1.211a3971.762 3971.762 0 0 1-3.878-2.672l-1.793-1.236c-.876-.604-.945-.646-1.21-.74a2.392 2.392 0 0 0-1.056-.131 2.315 2.315 0 0 0-2.031 1.832c-.033.154-.039 2.21-.04 13.366v13.185H20.8l.008 8.138Z"/>
      <defs>
        <linearGradient id="a" x1="27.2" x2="80.533" y1="56.84" y2="56.84" gradientUnits="userSpaceOnUse">
          <stop stop-color="#F50"/>
          <stop offset=".41" stop-color="#F50"/>
          <stop offset=".582" stop-color="#FF2000"/>
          <stop offset="1" stop-color="#FF2000"/>
        </linearGradient>
        <linearGradient id="b" x1="28.196" x2="71.512" y1="30.355" y2="30.355" gradientUnits="userSpaceOnUse">
          <stop stop-color="#FF452A"/>
          <stop offset="1" stop-color="#FF2000"/>
        </linearGradient>
        <linearGradient id="e" x1="27.584" x2="27.584" y1="10.667" y2="61.335" gradientUnits="userSpaceOnUse">
          <stop stop-color="#00BBEC"/>
          <stop offset="1" stop-color="#2756A9"/>
        </linearGradient>
        <radialGradient id="c" cx="0" cy="0" r="1" gradientTransform="rotate(-130.909 41.022 12.716) scale(30.3109 21.8101)" gradientUnits="userSpaceOnUse">
          <stop stop-color="#00CACC"/>
          <stop offset="1" stop-color="#048FCE"/>
        </radialGradient>
        <radialGradient id="d" cx="0" cy="0" r="1" gradientTransform="rotate(-23.195 166.666 -31.524) scale(32.7857 54.6385)" gradientUnits="userSpaceOnUse">
          <stop stop-color="#00BBEC"/>
          <stop offset="1" stop-color="#2756A9"/>
        </radialGradient>
      </defs>
    </symbol>
    <symbol id="ddg" width="80" height="80" fill="none" viewBox="0 0 80 80">
      <path fill="url(#a)" fill-rule="evenodd" d="m27.715 24.686.014-.037-.041-.043c-.023-.023-.07-.01-.07-.01l-.055-.063h-.192l-.055.063s-.048-.013-.07.01l-.042.043.015.037-.019.055.061.237c.013.051.022.07.058.097a4 4 0 0 0 .112.077c.01.007.024.018.036.018.012 0 .025-.011.036-.018l.112-.077c.036-.026.044-.046.057-.097l.061-.238-.018-.054Z" clip-rule="evenodd"/>
      <path fill="#fff" fill-rule="evenodd" d="M27.467 24.93a.21.21 0 0 1 .046.018l.036.02c.005.003.002.008-.002.01a4.035 4.035 0 0 0-.062.05c-.006.005-.013.013-.018.013a3.261 3.261 0 0 0-.08-.062c-.005-.003-.007-.008-.003-.011l.037-.02a.207.207 0 0 1 .046-.018Zm0-.3c.002 0 .012.001.026.006.016.005.034.012.042.012s.067-.011.067-.011.07.086.07.105c0 .018-.009.023-.017.033l-.053.057c-.005.005-.015.013-.01.028.007.015.016.034.006.053-.01.018-.027.031-.038.03a.199.199 0 0 1-.047-.023c-.01-.006-.04-.032-.04-.041 0-.01.032-.027.037-.031.006-.004.032-.02.033-.025 0-.006 0-.008-.008-.023-.007-.015-.021-.035-.019-.048.003-.013.025-.02.041-.026l.05-.02c.005-.002.004-.003-.008-.004a.198.198 0 0 0-.06-.002c-.015.005-.04.011-.042.014-.003.004-.004.004-.002.016l.014.078c.001.01.003.017-.008.02-.01.002-.028.006-.034.006-.006 0-.024-.004-.035-.006-.01-.003-.009-.01-.008-.02l.015-.078c.002-.012 0-.012-.002-.016a.213.213 0 0 0-.043-.014.198.198 0 0 0-.06.002c-.011 0-.012.002-.008.004l.05.02c.016.006.039.013.041.026.002.013-.012.033-.02.048-.007.015-.007.017-.007.023 0 .005.027.02.033.025.006.004.037.021.037.03 0 .01-.03.036-.04.042a.2.2 0 0 1-.046.022c-.011.002-.028-.01-.038-.03-.01-.018-.001-.037.005-.052s-.005-.023-.01-.028l-.052-.057c-.01-.01-.018-.015-.018-.033 0-.019.07-.105.07-.105s.06.011.068.011c.008 0 .025-.007.041-.012.014-.005.025-.005.026-.006h.001Z" clip-rule="evenodd"/>
      <path fill="url(#b)" d="m27.617 24.596-.054-.063h-.192l-.055.063s-.048-.013-.07.01c0 0 .063-.006.085.03 0 0 .06.012.068.012.008 0 .025-.007.041-.012a.095.095 0 0 1 .027-.006s.01 0 .026.006c.016.005.034.012.042.012s.067-.011.067-.011c.022-.037.086-.031.086-.031-.023-.023-.07-.01-.07-.01Z"/>
      <path fill="#DE5833" d="M40 69.333C56.2 69.333 69.333 56.2 69.333 40S56.2 10.667 40 10.667 10.667 23.8 10.667 40 23.8 69.333 40 69.333Z"/>
      <path fill="#fff" d="M64.836 29.489a26.954 26.954 0 0 0-5.77-8.556c-2.493-2.493-5.377-4.4-8.555-5.769-3.324-1.417-6.844-2.102-10.511-2.102-3.667 0-7.187.734-10.511 2.102a26.955 26.955 0 0 0-8.556 5.77c-2.493 2.493-4.4 5.377-5.769 8.555-1.417 3.324-2.102 6.844-2.102 10.511 0 3.618.734 7.187 2.102 10.511a26.953 26.953 0 0 0 5.77 8.556c2.493 2.493 5.377 4.4 8.555 5.768 3.324 1.418 6.844 2.103 10.511 2.103 3.667 0 7.187-.734 10.511-2.103a26.953 26.953 0 0 0 8.556-5.768c2.493-2.494 4.4-5.378 5.769-8.556 1.417-3.324 2.102-6.844 2.102-10.511 0-3.667-.685-7.187-2.102-10.511ZM45.866 64.2c-1.564-2.64-5.67-10.022-5.67-15.498 0-12.613 8.457-1.809 8.457-11.88 0-2.395-1.173-10.804-8.506-12.564-1.81-2.396-6.063-4.694-12.81-3.765 0 0 1.125.343 2.396.978 0 0-2.444.342-2.542 2.005 0 0 4.84-.245 7.578.635-6.307.831-9.582 4.107-8.996 10.169.831 8.556 4.45 23.809 5.72 29.138-9.582-3.471-16.475-12.663-16.475-23.467 0-13.738 11.146-24.933 24.933-24.933 13.787 0 24.933 11.146 24.933 24.933 0 11.782-8.115 21.609-19.017 24.249Z"/>
      <path fill="#FED30A" fill-rule="evenodd" d="M38.631 44.058c0-3.227 4.4-4.254 6.062-4.254 4.498 0 10.854-2.884 12.418-2.835 1.613.049 2.64.684 2.64 1.418 0 1.075-8.995 5.133-12.467 4.79-3.324-.293-4.106.05-4.106 1.419 0 1.173 2.395 2.248 5.035 2.248 3.96 0 7.823-1.76 8.996-.928 1.027.733-2.689 3.373-6.942 3.373-4.254 0-11.636-2.005-11.636-5.231Z" clip-rule="evenodd"/>
      <path fill="#2D4F8D" d="M46.453 30.369c-1.173-1.516-3.275-1.565-4.009.195 1.125-.88 2.494-1.075 4.01-.195Zm-13.102.049c-1.613-.978-4.302-1.076-4.155 2.004.83-1.906 1.906-2.249 4.155-2.004Zm12.125 2.835c-.88 0-1.614.734-1.614 1.614 0 .88.734 1.613 1.614 1.613.88 0 1.613-.733 1.613-1.613s-.733-1.614-1.613-1.614Zm.586 1.467a.49.49 0 0 1 0-.978c.294 0 .49.196.49.49-.05.292-.245.488-.49.488Zm-13.102-.587a1.857 1.857 0 1 0 0 3.716 1.857 1.857 0 1 0 0-3.716Zm.684 1.711a.542.542 0 0 1-.537-.537c0-.294.244-.538.537-.538.294 0 .538.244.538.538a.543.543 0 0 1-.538.537Z"/>
      <path fill="#D5D7D8" d="M28.902 26.213c-2.346 1.711-3.422 4.351-3.08 8.067.831 8.556 4.45 23.858 5.72 29.187l1.32.44c-.782-3.227-4.546-18.97-6.209-31.045-.44-3.227.783-5.133 2.25-6.649Zm5.818-2.102c.196 0 .342-.049.342-.049-2.542-1.222-6.55-1.27-7.626-1.27-.098.195-.196.44-.196.683-.049.05 4.693-.244 7.48.636Zm-4.596-2.64a15.165 15.165 0 0 0-1.808-1.076c-.343.05-.636.05-.978.098 0 0 1.124.343 2.395.978h-.097.488Z"/>
      <path fill="#67BD47" d="M49.827 53.982c-.831-.195-4.058 2.102-5.28 2.982-.05-.244-.098-.44-.147-.537-.147-.49-3.276-.196-4.009.586-1.955-.929-5.867-2.737-5.915-1.613-.147 1.467 0 7.578.782 8.018.586.342 3.91-1.467 5.573-2.396h.049c1.027.245 2.933 0 3.618-.44.098-.049.146-.147.195-.244 1.516.586 4.791 1.76 5.476 1.515.88-.244.684-7.626-.342-7.87Z"/>
      <path fill="#43A347" d="M40.88 61.022c-1.027-.195-.684-1.222-.684-3.618-.245.147-.44.343-.44.538 0 2.396-.392 3.471.684 3.618 1.027.244 2.933 0 3.716-.44.146-.098.195-.244.244-.489-.733.44-2.542.636-3.52.391Z"/>
      <path fill="#4C4C4C" d="M63.076 61.071c-.44 0-.832.342-.832.782s.343.831.832.831c.44 0 .83-.342.83-.83 0-.392-.342-.783-.83-.783Zm.048 1.467a.647.647 0 0 1-.635-.636c0-.342.244-.635.635-.635.343 0 .636.293.636.635-.049.342-.293.636-.636.636Z"/>
      <path fill="#4C4C4C" d="M63.124 61.56c.098 0 .147.049.196.147l.147-.098c-.05-.098-.196-.245-.343-.245a.49.49 0 0 0-.488.49c0 .293.195.488.488.488.196 0 .294-.098.343-.244L63.32 62c-.049.098-.098.147-.196.147a.316.316 0 0 1-.293-.294c.049-.146.147-.293.293-.293Z"/>
      <defs>
        <linearGradient id="a" x1="27.2" x2="80.533" y1="56.84" y2="56.84" gradientUnits="userSpaceOnUse">
          <stop stop-color="#F50"/>
          <stop offset=".41" stop-color="#F50"/>
          <stop offset=".582" stop-color="#FF2000"/>
          <stop offset="1" stop-color="#FF2000"/>
        </linearGradient>
        <linearGradient id="b" x1="28.196" x2="71.512" y1="30.355" y2="30.355" gradientUnits="userSpaceOnUse">
          <stop stop-color="#FF452A"/>
          <stop offset="1" stop-color="#FF2000"/>
        </linearGradient>
      </defs>
    </symbol>
  </defs>
</svg>
